<mxfile host="app.diagrams.net" modified="2023-04-25T08:35:53.649Z" agent="Mozilla/5.0 (Windows NT 10.0; Win64; x64) AppleWebKit/537.36 (KHTML, like Gecko) Chrome/112.0.0.0 Safari/537.36" etag="kwODeVU7tEqRlu9zILFV" version="21.2.1" type="github">
  <diagram name="第 1 页" id="DxMR86RqqS7yQ752BJwD">
    <mxGraphModel dx="1434" dy="756" grid="1" gridSize="10" guides="1" tooltips="1" connect="1" arrows="1" fold="1" page="1" pageScale="1" pageWidth="827" pageHeight="1169" math="0" shadow="0">
      <root>
        <mxCell id="0" />
        <mxCell id="1" parent="0" />
        <mxCell id="UullyXFClPUG-3zUb81m-1" style="edgeStyle=orthogonalEdgeStyle;rounded=0;orthogonalLoop=1;jettySize=auto;html=1;entryX=0.064;entryY=1.018;entryDx=0;entryDy=0;entryPerimeter=0;" edge="1" parent="1" source="UullyXFClPUG-3zUb81m-2" target="UullyXFClPUG-3zUb81m-9">
          <mxGeometry relative="1" as="geometry" />
        </mxCell>
        <mxCell id="UullyXFClPUG-3zUb81m-2" value="宿主机1" style="rounded=1;whiteSpace=wrap;html=1;" vertex="1" parent="1">
          <mxGeometry x="50" y="570" width="110" height="60" as="geometry" />
        </mxCell>
        <mxCell id="UullyXFClPUG-3zUb81m-3" style="edgeStyle=orthogonalEdgeStyle;rounded=0;orthogonalLoop=1;jettySize=auto;html=1;entryX=0.319;entryY=1.052;entryDx=0;entryDy=0;entryPerimeter=0;" edge="1" parent="1" source="UullyXFClPUG-3zUb81m-4" target="UullyXFClPUG-3zUb81m-9">
          <mxGeometry relative="1" as="geometry" />
        </mxCell>
        <mxCell id="UullyXFClPUG-3zUb81m-4" value="宿主机2" style="rounded=1;whiteSpace=wrap;html=1;" vertex="1" parent="1">
          <mxGeometry x="180" y="570" width="120" height="60" as="geometry" />
        </mxCell>
        <mxCell id="UullyXFClPUG-3zUb81m-5" style="edgeStyle=orthogonalEdgeStyle;rounded=0;orthogonalLoop=1;jettySize=auto;html=1;entryX=0.661;entryY=1.064;entryDx=0;entryDy=0;entryPerimeter=0;" edge="1" parent="1" source="UullyXFClPUG-3zUb81m-6" target="UullyXFClPUG-3zUb81m-9">
          <mxGeometry relative="1" as="geometry" />
        </mxCell>
        <mxCell id="UullyXFClPUG-3zUb81m-6" value="宿主机3" style="rounded=1;whiteSpace=wrap;html=1;" vertex="1" parent="1">
          <mxGeometry x="340" y="570" width="120" height="60" as="geometry" />
        </mxCell>
        <mxCell id="UullyXFClPUG-3zUb81m-7" style="edgeStyle=orthogonalEdgeStyle;rounded=0;orthogonalLoop=1;jettySize=auto;html=1;exitX=0.5;exitY=0;exitDx=0;exitDy=0;entryX=0.925;entryY=1.006;entryDx=0;entryDy=0;entryPerimeter=0;" edge="1" parent="1" source="UullyXFClPUG-3zUb81m-8" target="UullyXFClPUG-3zUb81m-9">
          <mxGeometry relative="1" as="geometry" />
        </mxCell>
        <mxCell id="UullyXFClPUG-3zUb81m-8" value="宿主机4" style="rounded=1;whiteSpace=wrap;html=1;" vertex="1" parent="1">
          <mxGeometry x="510" y="570" width="120" height="60" as="geometry" />
        </mxCell>
        <mxCell id="UullyXFClPUG-3zUb81m-9" value="计算节点（test）" style="rounded=1;whiteSpace=wrap;html=1;" vertex="1" parent="1">
          <mxGeometry x="90" y="460" width="470" height="60" as="geometry" />
        </mxCell>
        <mxCell id="UullyXFClPUG-3zUb81m-10" value="主机池" style="rounded=1;whiteSpace=wrap;html=1;" vertex="1" parent="1">
          <mxGeometry x="120" y="350" width="120" height="60" as="geometry" />
        </mxCell>
        <mxCell id="UullyXFClPUG-3zUb81m-11" value="主机池" style="rounded=1;whiteSpace=wrap;html=1;" vertex="1" parent="1">
          <mxGeometry x="420" y="350" width="120" height="60" as="geometry" />
        </mxCell>
        <mxCell id="UullyXFClPUG-3zUb81m-12" value="主机名" style="rounded=1;whiteSpace=wrap;html=1;" vertex="1" parent="1">
          <mxGeometry x="40" y="240" width="120" height="60" as="geometry" />
        </mxCell>
        <mxCell id="UullyXFClPUG-3zUb81m-13" value="主机名" style="rounded=1;whiteSpace=wrap;html=1;" vertex="1" parent="1">
          <mxGeometry x="190" y="240" width="120" height="60" as="geometry" />
        </mxCell>
        <mxCell id="UullyXFClPUG-3zUb81m-14" value="主机名" style="rounded=1;whiteSpace=wrap;html=1;" vertex="1" parent="1">
          <mxGeometry x="353.5" y="240" width="120" height="60" as="geometry" />
        </mxCell>
        <mxCell id="UullyXFClPUG-3zUb81m-15" value="主机名" style="rounded=1;whiteSpace=wrap;html=1;" vertex="1" parent="1">
          <mxGeometry x="510" y="240" width="120" height="60" as="geometry" />
        </mxCell>
        <mxCell id="UullyXFClPUG-3zUb81m-16" value="nova可用域" style="rounded=1;whiteSpace=wrap;html=1;" vertex="1" parent="1">
          <mxGeometry x="120" y="120" width="120" height="60" as="geometry" />
        </mxCell>
        <mxCell id="UullyXFClPUG-3zUb81m-17" value="nova可用域" style="rounded=1;whiteSpace=wrap;html=1;" vertex="1" parent="1">
          <mxGeometry x="420" y="120" width="120" height="60" as="geometry" />
        </mxCell>
        <mxCell id="UullyXFClPUG-3zUb81m-18" value="可用域别名" style="rounded=1;whiteSpace=wrap;html=1;" vertex="1" parent="1">
          <mxGeometry x="40" y="30" width="120" height="60" as="geometry" />
        </mxCell>
        <mxCell id="UullyXFClPUG-3zUb81m-19" value="可用域别名" style="rounded=1;whiteSpace=wrap;html=1;" vertex="1" parent="1">
          <mxGeometry x="180" y="30" width="120" height="60" as="geometry" />
        </mxCell>
        <mxCell id="UullyXFClPUG-3zUb81m-20" value="可用域别名" style="rounded=1;whiteSpace=wrap;html=1;" vertex="1" parent="1">
          <mxGeometry x="353.5" y="30" width="120" height="60" as="geometry" />
        </mxCell>
        <mxCell id="UullyXFClPUG-3zUb81m-21" value="可用域别名" style="rounded=1;whiteSpace=wrap;html=1;" vertex="1" parent="1">
          <mxGeometry x="490" y="30" width="120" height="60" as="geometry" />
        </mxCell>
      </root>
    </mxGraphModel>
  </diagram>
</mxfile>
